STARTFONT 2.1
FONT HAN-GB2312
SIZE 20 72 72
FONTBOUNDINGBOX 12 20 0 0
STARTPROPERTIES 1
BITCOUNT 8
ENDPROPERTIES
CHARS 25
STARTCHAR  00A4
ENCODING  164
SWIDTH  1000 0
DWIDTH  12 0
BBX  12 13 0 1
BITMAP
000010000000000000001000
0080E030A0F0FFC04080C010
10E0FFFFFFFFFFFFFFFFFF40
0040FFFFE04040A0FFFFA000
00A0FFE010000000A0FFF000
00E0FF800000000020FFFF40
00FFFF600000000000FFFF60
00F0FF800000000020FFFF40
00A0FFE010000000A0FFF010
0040FFFFE04040A0FFFF8000
10E0FFFFFFFFFFFFFFFFF030
0080E040A0F0FFE060A0E010
000010000000000000001000
ENDCHAR
STARTCHAR  00A7
ENCODING  167
SWIDTH  1000 0
DWIDTH  10 0
BBX  9 18 1 -4
BITMAP
000080F0FFC0300000
0080FFFFFFFFF03000
00E0FF8040E0FF6000
00E0FF600020400000
0060FFF03000000000
10A0FFFFF040000000
C0FFFFFFFFF0400000
F0FF4040F0FFF04000
E0FF800040FFFFF010
60FFFF600060FFFF60
0080FFFF8010F0FF80
0000A0FFFFFFFFF020
000000A0FFFFC02000
00000000A0FFE00000
0030400020FFFF4000
40F0E06060FFFF6000
10E0FFFFFFFFF01000
0020A0F0F0C0300000
ENDCHAR
STARTCHAR  00A8
ENCODING  168
SWIDTH  1000 0
DWIDTH  6 0
BBX  6 3 0 11
BITMAP
102000002010
E0FF4040FFE0
C0F02030F0C0
ENDCHAR
STARTCHAR  00B0
ENCODING  176
SWIDTH  1000 0
DWIDTH  9 0
BBX  8 7 1 7
BITMAP
0060E0FFE0801000
80FFFFFFFFFFC000
F0FFC03080FFFF40
F0FFA01040FFFF40
A0FFFFFFFFFFE010
00A0FFFFFFC02000
0000103010000000
ENDCHAR
STARTCHAR  00B1
ENCODING  177
SWIDTH  1000 0
DWIDTH  12 0
BBX  10 10 1 0
BITMAP
00000000FFFF60000000
00000000FFFF60000000
30303030FFFF80303030
FFFFFFFFFFFFFFFFFFFF
FFFFFFFFFFFFFFFFFFFF
00000000FFFF60000000
00000000FFFF60000000
30303030FFFF80303030
FFFFFFFFFFFFFFFFFFFF
FFFFFFFFFFFFFFFFFFFF
ENDCHAR
STARTCHAR  00E0
ENCODING  224
SWIDTH  1000 0
DWIDTH  12 0
BBX  11 14 1 0
BITMAP
000060FFFF600000000000
00000080FFE01000000000
00000000A0FF8000000000
0000000010808000000000
000060C0F0FFE0A0200000
00A0FFFFFFFFFFFFF04000
60FFFFC0403060E0FFE000
E0FFC00000000020FFFF40
F0FF600000000000E0FF60
F0FF600000000000E0FF60
C0FFE00000000060E0FF60
40FFFFC04040A0F0E0FF60
0080FFFFFFFFFFF0E0FF60
000040C0F0F0C060E0FF60
ENDCHAR
STARTCHAR  00E1
ENCODING  225
SWIDTH  1000 0
DWIDTH  12 0
BBX  11 14 1 0
BITMAP
0000000000C0FFE0200000
0000000060FFF030000000
00000010E0FF6000000000
0000003080600000000000
000060C0F0FFE0A0200000
00A0FFFFFFFFFFFFF04000
60FFFFC0403060E0FFE000
E0FFC00000000020FFFF40
F0FF600000000000E0FF60
F0FF600000000000E0FF60
C0FFE00000000060E0FF60
40FFFFC04040A0F0E0FF60
0080FFFFFFFFFFF0E0FF60
000040C0F0F0C060E0FF60
ENDCHAR
STARTCHAR  00E8
ENCODING  232
SWIDTH  1000 0
DWIDTH  12 0
BBX  11 14 1 0
BITMAP
000080FFFF300000000000
000000A0FFE00000000000
00000010E0FF6000000000
0000000010808000000000
000040C0F0FFE080100000
0080FFFFFFFFFFFFE02000
40FFFFC0403080FFFFC000
C0FFE0001080F0FFFFA010
F0FF8080F0FFFFA0300000
F0FFE0FFFFC03000E0E060
E0FFE0A030000040FFFF40
60FFFFC0403060F0FFE000
0080FFFFFFFFFFFFE02000
000040C0F0FFE080100000
ENDCHAR
STARTCHAR  00E9
ENCODING  233
SWIDTH  1000 0
DWIDTH  12 0
BBX  11 14 1 0
BITMAP
0000000000C0FFE0200000
0000000060FFF030000000
00000010E0FF4000000000
00000040A0600000000000
000040C0F0FFE080100000
0080FFFFFFFFFFFFE02000
40FFFFC0403080FFFFC000
C0FFE0001080F0FFFFA010
F0FF8080F0FFFFA0300000
F0FFE0FFFFC03000E0E060
E0FFE0A030000040FFFF40
60FFFFC0403060F0FFE000
0080FFFFFFFFFFFFE02000
000040C0F0FFE080100000
ENDCHAR
STARTCHAR  00EA
ENCODING  234
SWIDTH  1000 0
DWIDTH  12 0
BBX  11 14 1 0
BITMAP
00000030FFFFA000000000
000000E0FFF0FF40000000
000080FFC040FFE0100000
0000808020006080400000
000040C0F0FFE080100000
0080FFFFFFFFFFFFE02000
40FFFFC0403080FFFFC000
C0FFE0001080F0FFFFA010
F0FF8080F0FFFFA0300000
F0FFE0FFFFC03000E0E060
E0FFE0A030000040FFFF40
60FFFFC0403060F0FFE000
0080FFFFFFFFFFFFE02000
000040C0F0FFE080100000
ENDCHAR
STARTCHAR  00EC
ENCODING  236
SWIDTH  1000 0
DWIDTH  6 0
BBX  6 14 -1 0
BITMAP
00A0FFF02000
0000C0FFC000
000010C0FF60
000000106040
000000FFFF60
000000FFFF60
000000FFFF60
000000FFFF60
000000FFFF60
000000FFFF60
000000FFFF60
000000FFFF60
000000FFFF60
000000FFFF60
ENDCHAR
STARTCHAR  00ED
ENCODING  237
SWIDTH  1000 0
DWIDTH  6 0
BBX  6 14 1 0
BITMAP
0010E0FFE010
0080FFE02000
30FFF0300000
406030000000
00FFFF600000
00FFFF600000
00FFFF600000
00FFFF600000
00FFFF600000
00FFFF600000
00FFFF600000
00FFFF600000
00FFFF600000
00FFFF600000
ENDCHAR
STARTCHAR  00F2
ENCODING  242
SWIDTH  1000 0
DWIDTH  12 0
BBX  11 14 1 0
BITMAP
000080FFFF400000000000
000000A0FFE00000000000
00000000C0FF6000000000
0000000010808000000000
000040C0F0F0E080000000
0080FFFFFFFFFFFFE01000
40FFFFC0404080F0FFC000
C0FFC00000000060FFFF20
F0FF600000000010FFFF60
F0FF600000000010FFFF40
C0FFC00000000060FFFF20
40FFFFC0403080F0FFA000
0080FFFFFFFFFFFFE01000
000040A0F0FFE080100000
ENDCHAR
STARTCHAR  00F3
ENCODING  243
SWIDTH  1000 0
DWIDTH  12 0
BBX  11 14 1 0
BITMAP
0000000000C0FFE0100000
0000000060FFF030000000
00000000E0FF4000000000
00000030A0600000000000
000040C0F0F0E080000000
0080FFFFFFFFFFFFE01000
40FFFFC0404080F0FFC000
C0FFC00000000060FFFF20
F0FF600000000010FFFF60
F0FF600000000010FFFF40
C0FFC00000000060FFFF20
40FFFFC0403080F0FFA000
0080FFFFFFFFFFFFE01000
000040A0F0FFE080100000
ENDCHAR
STARTCHAR  00F7
ENCODING  247
SWIDTH  1000 0
DWIDTH  16 0
BBX  12 12 2 0
BITMAP
000000000080F06000000000
0000000000F0FFF000000000
0000000000F0FFF000000000
000000000060F06000000000
000000000000000000000000
FFFFFFFFFFFFFFFFFFFFFFFF
FFFFFFFFFFFFFFFFFFFFFFFF
303030303030303030303030
000000000000000000000000
000000000080F08000000000
0000000000F0FFF000000000
000000000080F08000000000
ENDCHAR
STARTCHAR  00F9
ENCODING  249
SWIDTH  1000 0
DWIDTH  11 0
BBX  9 14 1 0
BITMAP
0060FFFF8000000000
000060FFFF30000000
00000080FFC0000000
000000004060100000
FFFF6000000060FFFF
FFFF6000000060FFFF
FFFF6000000060FFFF
FFFF6000000060FFFF
FFFF6000000060FFFF
FFFF6000000060FFFF
F0FF8000000080FFF0
A0FFFF804080FFFFA0
20E0FFFFFFFFFFE020
0020A0E0FFE0A01000
ENDCHAR
STARTCHAR  00FA
ENCODING  250
SWIDTH  1000 0
DWIDTH  11 0
BBX  9 14 1 0
BITMAP
0000000080FFFF6000
00000030FFFF600000
000000C0FF80000000
000010606000000000
FFFF6000000060FFFF
FFFF6000000060FFFF
FFFF6000000060FFFF
FFFF6000000060FFFF
FFFF6000000060FFFF
FFFF6000000060FFFF
F0FF8000000080FFF0
A0FFFF804080FFFFA0
20E0FFFFFFFFFFE020
0020A0E0FFE0A01000
ENDCHAR
STARTCHAR  00FC
ENCODING  252
SWIDTH  1000 0
DWIDTH  11 0
BBX  9 14 1 0
BITMAP
0030F0C030F0C00000
0030FFE030FFE00000
000020100020100000
000000000000000000
FFFF6000000060FFFF
FFFF6000000060FFFF
FFFF6000000060FFFF
FFFF6000000060FFFF
FFFF6000000060FFFF
FFFF6000000060FFFF
F0FF8000000080FFF0
A0FFFF803080FFFFA0
20E0FFFFFFFFFFE020
0020A0E0FFE0A01000
ENDCHAR
STARTCHAR  2014
ENCODING  8212
SWIDTH  1000 0
DWIDTH  21 0
BBX  21 3 0 4
BITMAP
303030303030303030303030303030303030303030
FFFFFFFFFFFFFFFFFFFFFFFFFFFFFFFFFFFFFFFFFF
FFFFFFFFFFFFFFFFFFFFFFFFFFFFFFFFFFFFFFFFFF
ENDCHAR
STARTCHAR  2018
ENCODING  8216
SWIDTH  1000 0
DWIDTH  4 0
BBX  4 5 0 9
BITMAP
40FFF000
10FFFF10
00E0FF40
00A0FF60
0080FF80
ENDCHAR
STARTCHAR  2019
ENCODING  8217
SWIDTH  1000 0
DWIDTH  4 0
BBX  4 5 0 9
BITMAP
0080FFC0
00A0FF80
00C0FF60
00F0FF20
10FFF000
ENDCHAR
STARTCHAR  201C
ENCODING  8220
SWIDTH  1000 0
DWIDTH  8 0
BBX  8 5 0 9
BITMAP
60FFE000A0FF8000
20FFF00080FFA000
00F0FF2040FFE000
00C0FF4010FFFF00
0080FF8000E0FF30
ENDCHAR
STARTCHAR  201D
ENCODING  8221
SWIDTH  1000 0
DWIDTH  8 0
BBX  8 5 0 9
BITMAP
00E0FF6010FFFF20
00FFFF3030FFF000
20FFF00060FFC000
40FFC00080FF8000
60FF8000A0FF4000
ENDCHAR
STARTCHAR  2026
ENCODING  8230
SWIDTH  1000 0
DWIDTH  20 0
BBX  17 3 2 0
BITMAP
1020000000000010200000000000102000
E0FF4000000000E0FF4000000000E0FF40
C0F03000000000C0F02000000000C0F030
ENDCHAR
STARTCHAR  2030
ENCODING  8240
SWIDTH  1000 0
DWIDTH  21 0
BBX  22 14 0 0
BITMAP
0060E0FFF0A020000000A0FF40000000000000000000
80FFFFFFFFFFE0100040FFA000000000000000000000
E0FFC04060FFFF4010E0F01000000000000000000000
F0FFA01040FFFF4080FF600000000000000000000000
A0FFFFFFFFFFF040FFA0000000000000000000000000
10A0FFFFFFE040E0F010000000000000000000000000
00001030200080FF6000100000000000001000000000
000000000030FFC0A0FFFFF060000060E0FFFFA01000
0000000000E0F0E0FFFFFFFFFF6060FFFFFFFFFFC000
0000000080FFA0FFFF6010C0FFE0E0FFC01060FFFF30
00000030FFC060FFFF100060FFFFFFFF600010FFFF60
000000E0F02030FFFFA040E0FFE0E0FFE04080FFFF30
000080FF600000C0FFFFFFFFFF4060FFFFFFFFFFA000
0020F0C00000001080E0FFE040000060E0FFE0800000
ENDCHAR
ENDFONT
